<mxfile host="app.diagrams.net" agent="Mozilla/5.0 (Macintosh; Intel Mac OS X 10_15_7) AppleWebKit/537.36 (KHTML, like Gecko) Chrome/128.0.0.0 Safari/537.36" version="24.7.13">
  <diagram id="C5RBs43oDa-KdzZeNtuy" name="Page-1">
    <mxGraphModel dx="1393" dy="726" grid="1" gridSize="10" guides="1" tooltips="1" connect="1" arrows="1" fold="1" page="1" pageScale="1" pageWidth="827" pageHeight="1169" math="0" shadow="0">
      <root>
        <mxCell id="WIyWlLk6GJQsqaUBKTNV-0" />
        <mxCell id="WIyWlLk6GJQsqaUBKTNV-1" parent="WIyWlLk6GJQsqaUBKTNV-0" />
        <mxCell id="WIyWlLk6GJQsqaUBKTNV-2" value="" style="rounded=0;html=1;jettySize=auto;orthogonalLoop=1;fontSize=11;endArrow=block;endFill=0;endSize=8;strokeWidth=1;shadow=0;labelBackgroundColor=none;edgeStyle=orthogonalEdgeStyle;" parent="WIyWlLk6GJQsqaUBKTNV-1" source="WIyWlLk6GJQsqaUBKTNV-3" target="by49IAWij9mJk6MnOWl4-3" edge="1">
          <mxGeometry relative="1" as="geometry">
            <mxPoint x="220" y="160" as="targetPoint" />
          </mxGeometry>
        </mxCell>
        <mxCell id="WIyWlLk6GJQsqaUBKTNV-3" value="Moto Vendida&lt;div&gt;01/06/2024&lt;/div&gt;" style="rounded=1;whiteSpace=wrap;html=1;fontSize=12;glass=0;strokeWidth=1;shadow=0;" parent="WIyWlLk6GJQsqaUBKTNV-1" vertex="1">
          <mxGeometry x="160" y="50" width="120" height="40" as="geometry" />
        </mxCell>
        <mxCell id="by49IAWij9mJk6MnOWl4-0" value="" style="html=1;verticalLabelPosition=bottom;align=center;labelBackgroundColor=#ffffff;verticalAlign=top;strokeWidth=2;strokeColor=#0080F0;shadow=0;dashed=0;shape=mxgraph.ios7.icons.clock;" vertex="1" parent="WIyWlLk6GJQsqaUBKTNV-1">
          <mxGeometry x="230" y="130" width="20" height="20" as="geometry" />
        </mxCell>
        <mxCell id="by49IAWij9mJk6MnOWl4-1" value="Tempo&amp;nbsp;&lt;span style=&quot;background-color: initial;&quot;&gt;(1 mes?)&lt;/span&gt;&lt;div&gt;&lt;div&gt;&lt;div&gt;&lt;br&gt;&lt;/div&gt;&lt;/div&gt;&lt;/div&gt;" style="text;html=1;align=center;verticalAlign=middle;whiteSpace=wrap;rounded=0;" vertex="1" parent="WIyWlLk6GJQsqaUBKTNV-1">
          <mxGeometry x="260" y="140" width="90" height="10" as="geometry" />
        </mxCell>
        <mxCell id="by49IAWij9mJk6MnOWl4-14" style="edgeStyle=orthogonalEdgeStyle;rounded=0;orthogonalLoop=1;jettySize=auto;html=1;exitX=0.5;exitY=1;exitDx=0;exitDy=0;entryX=0.5;entryY=0;entryDx=0;entryDy=0;" edge="1" parent="WIyWlLk6GJQsqaUBKTNV-1" source="by49IAWij9mJk6MnOWl4-2" target="by49IAWij9mJk6MnOWl4-13">
          <mxGeometry relative="1" as="geometry" />
        </mxCell>
        <mxCell id="by49IAWij9mJk6MnOWl4-2" value="Disparo de Mensagem 1&lt;br&gt;ver anexo" style="whiteSpace=wrap;html=1;aspect=fixed;" vertex="1" parent="WIyWlLk6GJQsqaUBKTNV-1">
          <mxGeometry x="182.5" y="290" width="80" height="80" as="geometry" />
        </mxCell>
        <mxCell id="by49IAWij9mJk6MnOWl4-4" style="edgeStyle=orthogonalEdgeStyle;rounded=0;orthogonalLoop=1;jettySize=auto;html=1;" edge="1" parent="WIyWlLk6GJQsqaUBKTNV-1" source="by49IAWij9mJk6MnOWl4-3">
          <mxGeometry relative="1" as="geometry">
            <mxPoint x="220" y="290" as="targetPoint" />
          </mxGeometry>
        </mxCell>
        <mxCell id="by49IAWij9mJk6MnOWl4-6" style="edgeStyle=orthogonalEdgeStyle;rounded=0;orthogonalLoop=1;jettySize=auto;html=1;" edge="1" parent="WIyWlLk6GJQsqaUBKTNV-1" source="by49IAWij9mJk6MnOWl4-3" target="by49IAWij9mJk6MnOWl4-7">
          <mxGeometry relative="1" as="geometry">
            <mxPoint x="300" y="205" as="targetPoint" />
          </mxGeometry>
        </mxCell>
        <mxCell id="by49IAWij9mJk6MnOWl4-3" value="Cliente fez revisão?" style="rhombus;whiteSpace=wrap;html=1;" vertex="1" parent="WIyWlLk6GJQsqaUBKTNV-1">
          <mxGeometry x="177.5" y="170" width="85" height="70" as="geometry" />
        </mxCell>
        <mxCell id="by49IAWij9mJk6MnOWl4-5" value="Nao" style="text;html=1;align=center;verticalAlign=middle;whiteSpace=wrap;rounded=0;" vertex="1" parent="WIyWlLk6GJQsqaUBKTNV-1">
          <mxGeometry x="222.5" y="250" width="40" height="20" as="geometry" />
        </mxCell>
        <mxCell id="by49IAWij9mJk6MnOWl4-7" value="2 revisao" style="ellipse;whiteSpace=wrap;html=1;" vertex="1" parent="WIyWlLk6GJQsqaUBKTNV-1">
          <mxGeometry x="450" y="187.5" width="60" height="35" as="geometry" />
        </mxCell>
        <mxCell id="by49IAWij9mJk6MnOWl4-10" style="edgeStyle=orthogonalEdgeStyle;rounded=0;orthogonalLoop=1;jettySize=auto;html=1;" edge="1" parent="WIyWlLk6GJQsqaUBKTNV-1" source="by49IAWij9mJk6MnOWl4-9" target="by49IAWij9mJk6MnOWl4-11">
          <mxGeometry relative="1" as="geometry">
            <mxPoint x="525" y="459.9999999999999" as="targetPoint" />
          </mxGeometry>
        </mxCell>
        <mxCell id="by49IAWij9mJk6MnOWl4-9" value="Direcionar para Recepção&lt;br&gt;(URA)" style="whiteSpace=wrap;html=1;aspect=fixed;" vertex="1" parent="WIyWlLk6GJQsqaUBKTNV-1">
          <mxGeometry x="368" y="420" width="80" height="80" as="geometry" />
        </mxCell>
        <mxCell id="by49IAWij9mJk6MnOWl4-20" style="edgeStyle=orthogonalEdgeStyle;rounded=0;orthogonalLoop=1;jettySize=auto;html=1;entryX=1;entryY=0.5;entryDx=0;entryDy=0;" edge="1" parent="WIyWlLk6GJQsqaUBKTNV-1" source="by49IAWij9mJk6MnOWl4-11" target="by49IAWij9mJk6MnOWl4-7">
          <mxGeometry relative="1" as="geometry">
            <mxPoint x="565" y="260" as="targetPoint" />
          </mxGeometry>
        </mxCell>
        <mxCell id="by49IAWij9mJk6MnOWl4-11" value="segue processo atual de agendamento" style="ellipse;whiteSpace=wrap;html=1;" vertex="1" parent="WIyWlLk6GJQsqaUBKTNV-1">
          <mxGeometry x="505" y="419.9999999999999" width="120" height="80" as="geometry" />
        </mxCell>
        <mxCell id="by49IAWij9mJk6MnOWl4-12" value="&lt;div&gt;&lt;div&gt;Sim&lt;/div&gt;&lt;/div&gt;" style="text;html=1;align=center;verticalAlign=middle;resizable=0;points=[];autosize=1;strokeColor=none;fillColor=none;" vertex="1" parent="WIyWlLk6GJQsqaUBKTNV-1">
          <mxGeometry x="285" y="430" width="40" height="30" as="geometry" />
        </mxCell>
        <mxCell id="by49IAWij9mJk6MnOWl4-15" style="edgeStyle=orthogonalEdgeStyle;rounded=0;orthogonalLoop=1;jettySize=auto;html=1;entryX=0;entryY=0.5;entryDx=0;entryDy=0;" edge="1" parent="WIyWlLk6GJQsqaUBKTNV-1" source="by49IAWij9mJk6MnOWl4-13" target="by49IAWij9mJk6MnOWl4-9">
          <mxGeometry relative="1" as="geometry" />
        </mxCell>
        <mxCell id="by49IAWij9mJk6MnOWl4-17" style="edgeStyle=orthogonalEdgeStyle;rounded=0;orthogonalLoop=1;jettySize=auto;html=1;" edge="1" parent="WIyWlLk6GJQsqaUBKTNV-1" source="by49IAWij9mJk6MnOWl4-13">
          <mxGeometry relative="1" as="geometry">
            <mxPoint x="222.4999999999999" y="580" as="targetPoint" />
          </mxGeometry>
        </mxCell>
        <mxCell id="by49IAWij9mJk6MnOWl4-13" value="Cliente quer fazer revisão" style="rhombus;whiteSpace=wrap;html=1;" vertex="1" parent="WIyWlLk6GJQsqaUBKTNV-1">
          <mxGeometry x="182.5" y="420" width="80" height="80" as="geometry" />
        </mxCell>
        <mxCell id="by49IAWij9mJk6MnOWl4-16" value="&lt;div&gt;&lt;div&gt;Sim&lt;/div&gt;&lt;/div&gt;" style="text;html=1;align=center;verticalAlign=middle;resizable=0;points=[];autosize=1;strokeColor=none;fillColor=none;" vertex="1" parent="WIyWlLk6GJQsqaUBKTNV-1">
          <mxGeometry x="325" y="180" width="40" height="30" as="geometry" />
        </mxCell>
        <mxCell id="by49IAWij9mJk6MnOWl4-18" value="Nao" style="text;html=1;align=center;verticalAlign=middle;resizable=0;points=[];autosize=1;strokeColor=none;fillColor=none;" vertex="1" parent="WIyWlLk6GJQsqaUBKTNV-1">
          <mxGeometry x="225" y="518" width="50" height="30" as="geometry" />
        </mxCell>
        <mxCell id="by49IAWij9mJk6MnOWl4-22" value="" style="html=1;verticalLabelPosition=bottom;align=center;labelBackgroundColor=#ffffff;verticalAlign=top;strokeWidth=2;strokeColor=#0080F0;shadow=0;dashed=0;shape=mxgraph.ios7.icons.clock;" vertex="1" parent="WIyWlLk6GJQsqaUBKTNV-1">
          <mxGeometry x="275" y="523" width="20" height="20" as="geometry" />
        </mxCell>
        <mxCell id="by49IAWij9mJk6MnOWl4-23" value="Tempo&amp;nbsp;&lt;div&gt;3&lt;span style=&quot;background-color: initial;&quot;&gt;&amp;nbsp;meses&lt;/span&gt;&lt;div&gt;&lt;span style=&quot;background-color: initial;&quot;&gt;&lt;br&gt;&lt;/span&gt;&lt;/div&gt;&lt;/div&gt;" style="text;html=1;align=center;verticalAlign=middle;whiteSpace=wrap;rounded=0;" vertex="1" parent="WIyWlLk6GJQsqaUBKTNV-1">
          <mxGeometry x="262.5" y="518" width="125" height="38" as="geometry" />
        </mxCell>
        <mxCell id="by49IAWij9mJk6MnOWl4-25" style="edgeStyle=orthogonalEdgeStyle;rounded=0;orthogonalLoop=1;jettySize=auto;html=1;exitX=0.5;exitY=1;exitDx=0;exitDy=0;entryX=0.5;entryY=0;entryDx=0;entryDy=0;" edge="1" parent="WIyWlLk6GJQsqaUBKTNV-1" source="by49IAWij9mJk6MnOWl4-26">
          <mxGeometry relative="1" as="geometry">
            <mxPoint x="225.5" y="830" as="targetPoint" />
          </mxGeometry>
        </mxCell>
        <mxCell id="by49IAWij9mJk6MnOWl4-26" value="Disparo de Mensagem 2&lt;br&gt;ver anexo" style="whiteSpace=wrap;html=1;aspect=fixed;" vertex="1" parent="WIyWlLk6GJQsqaUBKTNV-1">
          <mxGeometry x="182.5" y="770" width="80" height="80" as="geometry" />
        </mxCell>
        <mxCell id="by49IAWij9mJk6MnOWl4-27" style="edgeStyle=orthogonalEdgeStyle;rounded=0;orthogonalLoop=1;jettySize=auto;html=1;entryX=0.5;entryY=0;entryDx=0;entryDy=0;" edge="1" parent="WIyWlLk6GJQsqaUBKTNV-1" source="by49IAWij9mJk6MnOWl4-28" target="by49IAWij9mJk6MnOWl4-26">
          <mxGeometry relative="1" as="geometry">
            <mxPoint x="222.5" y="700" as="targetPoint" />
          </mxGeometry>
        </mxCell>
        <mxCell id="by49IAWij9mJk6MnOWl4-30" style="edgeStyle=orthogonalEdgeStyle;rounded=0;orthogonalLoop=1;jettySize=auto;html=1;entryX=0.5;entryY=1;entryDx=0;entryDy=0;" edge="1" parent="WIyWlLk6GJQsqaUBKTNV-1" source="by49IAWij9mJk6MnOWl4-28" target="by49IAWij9mJk6MnOWl4-9">
          <mxGeometry relative="1" as="geometry" />
        </mxCell>
        <mxCell id="by49IAWij9mJk6MnOWl4-28" value="Cliente quer fazer revisão" style="rhombus;whiteSpace=wrap;html=1;" vertex="1" parent="WIyWlLk6GJQsqaUBKTNV-1">
          <mxGeometry x="172.5" y="580" width="100" height="80" as="geometry" />
        </mxCell>
        <mxCell id="by49IAWij9mJk6MnOWl4-29" value="Nao&lt;div&gt;&lt;br&gt;&lt;/div&gt;" style="text;html=1;align=center;verticalAlign=middle;whiteSpace=wrap;rounded=0;" vertex="1" parent="WIyWlLk6GJQsqaUBKTNV-1">
          <mxGeometry x="222.5" y="715" width="40" height="20" as="geometry" />
        </mxCell>
        <mxCell id="by49IAWij9mJk6MnOWl4-31" value="&lt;div&gt;Sim&lt;/div&gt;" style="text;html=1;align=center;verticalAlign=middle;whiteSpace=wrap;rounded=0;" vertex="1" parent="WIyWlLk6GJQsqaUBKTNV-1">
          <mxGeometry x="320" y="600" width="40" height="20" as="geometry" />
        </mxCell>
        <mxCell id="by49IAWij9mJk6MnOWl4-32" value="" style="html=1;verticalLabelPosition=bottom;align=center;labelBackgroundColor=#ffffff;verticalAlign=top;strokeWidth=2;strokeColor=#0080F0;shadow=0;dashed=0;shape=mxgraph.ios7.icons.clock;" vertex="1" parent="WIyWlLk6GJQsqaUBKTNV-1">
          <mxGeometry x="265" y="710" width="20" height="20" as="geometry" />
        </mxCell>
        <mxCell id="by49IAWij9mJk6MnOWl4-33" value="Tempo&amp;nbsp;&lt;span style=&quot;background-color: initial;&quot;&gt;(5 meses)&lt;/span&gt;&lt;div&gt;&lt;div&gt;&lt;div&gt;&lt;br&gt;&lt;/div&gt;&lt;/div&gt;&lt;/div&gt;" style="text;html=1;align=center;verticalAlign=middle;whiteSpace=wrap;rounded=0;" vertex="1" parent="WIyWlLk6GJQsqaUBKTNV-1">
          <mxGeometry x="282.5" y="710" width="115" height="30" as="geometry" />
        </mxCell>
      </root>
    </mxGraphModel>
  </diagram>
</mxfile>
